<?xml version="1.0" encoding="UTF-8" standalone="no"?><!DOCTYPE svg PUBLIC "-//W3C//DTD SVG 1.1//EN" "http://www.w3.org/Graphics/SVG/1.1/DTD/svg11.dtd"><svg width="100%" height="100%" viewBox="0 0 3509 2286" version="1.1" xmlns="http://www.w3.org/2000/svg" xmlns:xlink="http://www.w3.org/1999/xlink" xml:space="preserve" xmlns:serif="http://www.serif.com/" style="fill-rule:evenodd;clip-rule:evenodd;stroke-linejoin:round;stroke-miterlimit:2;"><path d="M2525.885,81.55l3.255,89.42l221.705,558.724l262.888,-12.355l106.391,-139.338l54.225,-146.202l0,-59.03l65.482,-102.135l75.119,100.9l0.247,62.16l57.959,149.798l104.606,166.244l-59.057,3.295l-0,24.024l59.497,1.318l13.261,884.815l16.809,5.491l0,616.373l-3508.271,0l0,-1690.492c0,0 87.381,15.101 93.861,93.349c0,0 93.849,31.55 75.537,144.093c0,0 74.892,-12.36 80.274,39.86c0,0 58.426,29.552 68.705,90.703l-2.46,-120.218l99.815,-137.297l181.054,2.503l108.07,153.682l1.954,126.057c0,0 322.701,104.631 558.037,141.282l0,-79.523l125.61,-90.016l-3.281,-85.219l94.895,-128.775l109.632,124.264l2.63,97.298l105.688,92.647l0,121.492l-22.651,37.065c0,0 196.057,218.891 413.208,421.445l201.113,-225.274l65.894,-3.981l-26.497,-678.176l173.342,-559.476l-3.333,-90.955c-9.282,-4.588 -15.665,-14.1 -15.665,-25.079c0,-10.317 5.636,-19.338 14.018,-24.196l10.603,-32.113l13.063,29.919c10.934,3.861 18.77,14.225 18.77,26.389c0,11.111 -6.537,20.719 -16,25.242Zm230.699,812.342l9.609,292.403l117.373,-120.119l154.438,156.498l-11.669,-344.569l-269.752,15.787Z" style="fill:#1e4e59;"/></svg>