<?xml version="1.0" encoding="UTF-8" standalone="no"?><!DOCTYPE svg PUBLIC "-//W3C//DTD SVG 1.1//EN" "http://www.w3.org/Graphics/SVG/1.1/DTD/svg11.dtd"><svg width="100%" height="100%" viewBox="0 0 842 1191" version="1.1" xmlns="http://www.w3.org/2000/svg" xmlns:xlink="http://www.w3.org/1999/xlink" xml:space="preserve" xmlns:serif="http://www.serif.com/" style="fill-rule:evenodd;clip-rule:evenodd;stroke-linejoin:round;stroke-miterlimit:2;"><g id="Vordergrund-gruppe"><path d="M606.117,661.711l0.781,21.461l53.209,134.094l63.093,-2.965l25.534,-33.441l13.014,-35.088l0,-14.167l15.716,-24.512l18.029,24.216l0.059,14.918l13.91,35.952l25.105,39.899l-14.174,0.791l-0,5.766l14.279,0.316l3.183,212.356l4.034,1.318l0,147.929l-841.985,0l-0,-405.718c0,0 20.971,3.624 22.527,22.404c0,0 22.524,7.572 18.129,34.582c0,0 17.974,-2.966 19.266,9.566c0,0 14.022,7.093 16.489,21.769l-0.59,-28.852l23.955,-32.951l43.453,0.601l25.937,36.884l0.469,30.254c0,0 77.448,25.111 133.929,33.908l0,-19.085l30.146,-21.604l-0.787,-20.453l22.775,-30.906l26.312,29.823l0.631,23.351l25.365,22.235l0,29.158l-5.436,8.896c0,0 47.054,52.534 99.17,101.147l48.267,-54.066l15.814,-0.955l-6.359,-162.762l41.602,-134.274l-0.8,-21.829c-2.228,-1.101 -3.76,-3.384 -3.76,-6.019c0,-2.476 1.353,-4.641 3.364,-5.807l2.545,-7.707l3.135,7.181c2.624,0.927 4.505,3.414 4.505,6.333c0,2.667 -1.569,4.972 -3.84,6.058Zm55.368,194.962l2.306,70.177l28.17,-28.828l37.065,37.559l-2.8,-82.697l-64.741,3.789Z" style="fill:#1e4e59;"/></g></svg>