<?xml version="1.0" encoding="UTF-8" standalone="no"?><!DOCTYPE svg PUBLIC "-//W3C//DTD SVG 1.1//EN" "http://www.w3.org/Graphics/SVG/1.1/DTD/svg11.dtd"><svg width="100%" height="100%" viewBox="0 0 3508 1778" version="1.1" xmlns="http://www.w3.org/2000/svg" xmlns:xlink="http://www.w3.org/1999/xlink" xml:space="preserve" xmlns:serif="http://www.serif.com/" style="fill-rule:evenodd;clip-rule:evenodd;stroke-linejoin:round;stroke-miterlimit:2;"><g id="Wolken"><path d="M76.14,1666.324c0,0 139.379,-68.817 174.754,-102.265c6.363,-6.016 179.587,13.907 299.7,-71.474c0,0 152.897,11.586 285.635,-76.44c0,0 189.051,27.469 330.113,-72.479c0,0 169.209,5.376 271.922,-63.279c0,0 134.097,4.937 206.028,-18.45c0,0 258.538,2.774 233.668,-34.493c-19.923,-29.855 -734.9,-23.493 -734.9,-23.493c0,0 113.862,-27.913 192.849,-73.362c0,0 197.968,23.927 311.458,-26.797c0,0 198.242,-12.199 307.065,-32.947c0,0 411.255,45.932 663.71,12.265c0,0 8.42,39.921 215.802,73.032c0,0 -209.837,15.026 -328.92,83.465c0,0 -696.792,55.997 -725.929,90.055c-40.16,46.94 193.636,34.137 345.393,15.924c0,0 130.653,34.521 251.494,-19.768c0,0 128.354,25.255 228.432,7.688c0,0 226.327,71.175 634.227,143.868c0,0 -385.405,1.352 -374.496,39.26c5.187,18.023 199.118,54.154 389.871,72.211c0,0 48.232,42.485 253.858,73.032l0,-1661.876l-3507.874,0l0,1777.693c0,0 185.316,-51.077 193.027,-83.013c8.239,-34.125 -116.887,-28.356 -116.887,-28.356Z" style="fill:#c9f2e7;"/></g></svg>