<?xml version="1.0" encoding="UTF-8" standalone="no"?><!DOCTYPE svg PUBLIC "-//W3C//DTD SVG 1.1//EN" "http://www.w3.org/Graphics/SVG/1.1/DTD/svg11.dtd"><svg width="100%" height="100%" viewBox="0 0 842 1191" version="1.1" xmlns="http://www.w3.org/2000/svg" xmlns:xlink="http://www.w3.org/1999/xlink" xml:space="preserve" xmlns:serif="http://www.serif.com/" style="fill-rule:evenodd;clip-rule:evenodd;stroke-linejoin:round;stroke-miterlimit:2;"><g id="Vordergrund-gruppe"><g id="Wolken"><path d="M18.274,399.918c0,0 33.451,-16.516 41.941,-24.544c1.527,-1.444 43.101,3.338 71.928,-17.154c0,0 36.695,2.781 68.552,-18.346c0,0 45.372,6.592 79.227,-17.395c0,0 40.61,1.29 65.261,-15.187c0,0 32.183,1.185 49.447,-4.428c0,0 62.049,0.666 56.08,-8.278c-4.782,-7.165 -176.376,-5.638 -176.376,-5.638c0,0 27.327,-6.699 46.284,-17.607c0,0 47.512,5.742 74.75,-6.431c0,0 47.578,-2.928 73.696,-7.907c0,0 98.701,11.024 159.29,2.944c0,0 2.021,9.581 51.792,17.528c0,0 -50.361,3.606 -78.941,20.032c0,0 -167.23,13.439 -174.223,21.613c-9.638,11.266 46.473,8.193 82.894,3.822c0,0 31.357,8.285 60.359,-4.744c0,0 30.805,6.061 54.824,1.845c0,0 54.318,17.082 152.215,34.528c0,0 -92.497,0.325 -89.879,9.422c1.245,4.325 47.788,12.997 93.569,17.331c0,0 11.576,10.196 60.926,17.528l0,-398.85l-841.89,0l0,426.646c0,0 44.476,-12.259 46.326,-19.923c1.977,-8.19 -28.053,-6.805 -28.053,-6.805Z" style="fill:#c9f2e7;"/></g></g></svg>