<?xml version="1.0" encoding="UTF-8" standalone="no"?><!DOCTYPE svg PUBLIC "-//W3C//DTD SVG 1.1//EN" "http://www.w3.org/Graphics/SVG/1.1/DTD/svg11.dtd"><svg width="100%" height="100%" viewBox="0 0 2759 644" version="1.1" xmlns="http://www.w3.org/2000/svg" xmlns:xlink="http://www.w3.org/1999/xlink" xml:space="preserve" xmlns:serif="http://www.serif.com/" style="fill-rule:evenodd;clip-rule:evenodd;stroke-linejoin:round;stroke-miterlimit:2;"><g id="Überschrift"><g id="lines"><rect x="0.794" y="303.088" width="2758.064" height="37.5" style="fill:#f29441;"/><path d="M2758.858,303.088l0,37.5l-2758.064,0l0,-37.5l2758.064,0Zm-1,1l-2756.064,0l0,35.5l2756.064,-0l0,-35.5Z" style="fill:#ff2400;"/><rect x="0" y="606.457" width="2758.064" height="37.5" style="fill:#f29441;"/><path d="M2758.064,606.457l0,37.5l-2758.064,0l0,-37.5l2758.064,0Zm-1,1l-2756.064,0l0,35.5l2756.064,-0l0,-35.5Z" style="fill:#ff2400;"/><rect x="0.794" y="0" width="2758.064" height="37.5" style="fill:#f29441;"/><path d="M2758.858,-0l0,37.5l-2758.064,0l0,-37.5l2758.064,0Zm-1,1l-2756.064,0l-0,35.5l2756.064,-0l0,-35.5Z" style="fill:#ff2400;"/></g><path d="M27.571,587.338l0,-99.9c0,-26.8 20.748,-40.2 62.244,-40.2l95.004,0c12.48,0 18.72,-4 18.72,-12l0,-6.6c0,-8 -6.24,-12 -18.72,-12l-151.164,0l0,-57.3l187.2,0c42.432,0 63.648,14.5 63.648,43.5l0,56.4c0,26.6 -21.84,39.9 -65.52,39.9l-93.132,0c-12.168,0 -18.252,4 -18.252,12l0,18.9l176.904,0l0,57.3l-256.932,0Z" style="fill:#f29441;fill-rule:nonzero;"/><path d="M357.979,587.338l128.232,-170.7l-150.228,0l0,-57.3l266.292,0l0,38.7l-137.592,189.3l-106.704,0Z" style="fill:#f29441;fill-rule:nonzero;"/><path d="M642.007,587.338c-11.232,0 -16.848,-3.9 -16.848,-11.7l0,-33.6c0,-8 6.24,-12 18.72,-12l43.992,0c11.856,0 17.784,4 17.784,12l0,33.6c0,7.8 -5.928,11.7 -17.784,11.7l-45.864,0Z" style="fill:#f29441;fill-rule:nonzero;"/><path d="M944.803,425.638c0,-6 -4.68,-9 -14.04,-9l-67.392,0c-9.36,0 -14.04,3 -14.04,9l0,95.4c0,6 4.68,9 14.04,9l67.392,0c9.36,0 14.04,-3 14.04,-9l0,-95.4Zm-112.32,161.7c-42.744,0 -64.116,-13.3 -64.116,-39.9l0,-146.4c0,-27.8 21.372,-41.7 64.116,-41.7l128.7,0c42.744,0 64.116,13.9 64.116,41.7l0,146.4c0,26.6 -21.372,39.9 -64.116,39.9l-128.7,0Z" style="fill:#f29441;fill-rule:nonzero;"/><path d="M1080.523,587.338l0,-57.3l137.592,0c9.048,0 13.572,-3 13.572,-9l0,-15.9c0,-6 -4.524,-9 -13.572,-9l-132.912,0l0,-45.9l132.912,0c9.048,0 13.572,-3 13.572,-9l0,-15.6c0,-6 -4.524,-9 -13.572,-9l-134.316,0l0,-57.3l163.8,0c42.744,0 64.116,14.2 64.116,42.6l0,36c0,20.6 -13.104,32.4 -39.312,35.4c14.04,2 24.258,5.7 30.654,11.1c6.396,5.4 9.594,12.6 9.594,21.6l0,39c0,28.2 -21.372,42.3 -64.116,42.3l-168.012,0Z" style="fill:#f29441;fill-rule:nonzero;"/><path d="M1392.211,587.338c-11.232,0 -16.848,-3.9 -16.848,-11.7l0,-33.6c0,-8 6.24,-12 18.72,-12l43.992,0c11.856,0 17.784,4 17.784,12l0,33.6c0,7.8 -5.928,11.7 -17.784,11.7l-45.864,0Z" style="fill:#f29441;fill-rule:nonzero;"/><path d="M1518.571,587.338l0,-99.9c0,-26.8 20.748,-40.2 62.244,-40.2l95.004,0c12.48,0 18.72,-4 18.72,-12l0,-6.6c0,-8 -6.24,-12 -18.72,-12l-151.164,0l0,-57.3l187.2,0c42.432,0 63.648,14.5 63.648,43.5l0,56.4c0,26.6 -21.84,39.9 -65.52,39.9l-93.132,0c-12.168,0 -18.252,4 -18.252,12l0,18.9l176.904,0l0,57.3l-256.932,0Z" style="fill:#f29441;fill-rule:nonzero;"/><path d="M2012.779,425.638c0,-6 -4.68,-9 -14.04,-9l-67.392,0c-9.36,0 -14.04,3 -14.04,9l0,95.4c0,6 4.68,9 14.04,9l67.392,0c9.36,0 14.04,-3 14.04,-9l0,-95.4Zm-112.32,161.7c-42.744,0 -64.116,-13.3 -64.116,-39.9l0,-146.4c0,-27.8 21.372,-41.7 64.116,-41.7l128.7,0c42.744,0 64.116,13.9 64.116,41.7l0,146.4c0,26.6 -21.372,39.9 -64.116,39.9l-128.7,0Z" style="fill:#f29441;fill-rule:nonzero;"/><path d="M2154.115,587.338l0,-99.9c0,-26.8 20.748,-40.2 62.244,-40.2l95.004,0c12.48,0 18.72,-4 18.72,-12l0,-6.6c0,-8 -6.24,-12 -18.72,-12l-151.164,0l0,-57.3l187.2,0c42.432,0 63.648,14.5 63.648,43.5l0,56.4c0,26.6 -21.84,39.9 -65.52,39.9l-93.132,0c-12.168,0 -18.252,4 -18.252,12l0,18.9l176.904,0l0,57.3l-256.932,0Z" style="fill:#f29441;fill-rule:nonzero;"/><path d="M2649.727,506.038c0,-6 -4.68,-9 -14.04,-9l-67.392,0c-9.36,0 -14.04,3 -14.04,9l0,15.9c0,6 4.68,9 14.04,9l67.392,0c9.36,0 14.04,-3 14.04,-9l0,-15.9Zm-113.724,81.3c-42.744,0 -64.116,-14.2 -64.116,-42.6l0,-141.9c0,-29 20.904,-43.5 62.712,-43.5l186.732,0l0,57.3l-148.824,0c-12.168,0 -18.252,4.3 -18.252,12.9l0,29.1c4.992,-5.4 12.636,-8.1 22.932,-8.1l96.876,0c37.44,0 56.16,13.1 56.16,39.3l0,57.3c0,26.8 -20.748,40.2 -62.244,40.2l-131.976,0Z" style="fill:#f29441;fill-rule:nonzero;"/><path d="M13.796,284.25l0,-228l142.5,0l0,56.4l-90.3,0l0,32.4l78,0l0,48.3l-78,0l0,33.6l90.9,0l0,57.3l-143.1,0Z" style="fill:#f29441;fill-rule:nonzero;"/><path d="M294.553,121.05c0,-6 -3,-9 -9,-9l-52.2,0l0,33.9l52.2,0c6,0 9,-3 9,-9l0,-15.9Zm1.5,163.2c-0.4,-1.4 -0.75,-3.05 -1.05,-4.95c-0.3,-1.9 -0.45,-4.25 -0.45,-7.05l0,-69c0,-6 -3,-9 -9,-9l-52.2,0l0,90l-51.9,0l0,-228l122.7,0c27.6,-0 41.4,14.2 41.4,42.6l0,36c0,20.6 -8.4,32.4 -25.2,35.4c9,2 15.55,5.7 19.65,11.1c4.1,5.4 6.15,12.6 6.15,21.6l0,67.5c0,4 0.15,6.9 0.45,8.7c0.3,1.8 0.65,3.5 1.05,5.1l-51.6,0Z" style="fill:#f29441;fill-rule:nonzero;"/><path d="M373.411,284.25l0,-57.3l102.3,0c6,0 9,-3 9,-9l0,-15c0,-6 -3,-9 -9,-9l-60.6,0c-28,0 -42,-13.3 -42,-39.9l0,-54.3c0,-29 13.5,-43.5 40.5,-43.5l117.6,0l0,57.3l-97.2,0c-6,0 -9,3 -9,9l0,14.7c0,6 3,9 9,9l62.4,0c26.6,0 39.9,13.4 39.9,40.2l0,53.4c0,29.6 -14.5,44.4 -43.5,44.4l-119.4,0Z" style="fill:#f29441;fill-rule:nonzero;"/><path d="M608.869,284.25l0,-170.7l-52.2,0l0,-57.3l156,0l0,57.3l-52.2,0l0,170.7l-51.6,0Z" style="fill:#f29441;fill-rule:nonzero;"/><rect x="733.926" y="56.25" width="51.9" height="228" style="fill:#f29441;fill-rule:nonzero;"/><path d="M928.284,284.25l-60.9,-111.9l0,111.9l-51.9,0l0,-228l51.9,0l0,91.2l55.5,-91.2l59.7,0l-63.6,99l73.8,129l-64.5,0Z" style="fill:#f29441;fill-rule:nonzero;"/><path d="M1140.942,284.25l-78.9,-120.6l0,120.6l-51.9,0l0,-228l49.8,0l72.6,119.1l0,-119.1l51.9,0l0,228l-43.5,0Z" style="fill:#f29441;fill-rule:nonzero;"/><path d="M1214.1,284.25l0,-228l142.5,0l0,56.4l-90.3,0l0,32.4l78,0l0,48.3l-78,0l0,33.6l90.9,0l0,57.3l-143.1,0Z" style="fill:#f29441;fill-rule:nonzero;"/><rect x="1381.757" y="56.25" width="51.9" height="228" style="fill:#f29441;fill-rule:nonzero;"/><path d="M1576.415,122.55c0,-6 -3,-9 -9,-9l-52.2,0l0,33.9l52.2,0c6,0 9,-3 9,-9l0,-15.9Zm-113.1,161.7l0,-228l123.6,0c27.4,-0 41.1,14.2 41.1,42.6l0,60c0,26.2 -13.7,39.3 -41.1,39.3l-71.7,0l0,86.1l-51.9,0Z" style="fill:#f29441;fill-rule:nonzero;"/><path d="M1651.673,284.25l0,-228l142.5,0l0,56.4l-90.3,0l0,32.4l78,0l0,48.3l-78,0l0,33.6l90.9,0l0,57.3l-143.1,0Z" style="fill:#f29441;fill-rule:nonzero;"/><path d="M1950.13,284.25l-78.9,-120.6l0,120.6l-51.9,0l0,-228l49.8,0l72.6,119.1l0,-119.1l51.9,0l0,228l-43.5,0Z" style="fill:#f29441;fill-rule:nonzero;"/><path d="M2067.388,284.25l0,-170.7l-52.2,0l0,-57.3l156,0l0,57.3l-52.2,0l0,170.7l-51.6,0Z" style="fill:#f29441;fill-rule:nonzero;"/><path d="M2304.346,122.55c0,-6 -3,-9 -9,-9l-43.2,0c-6,0 -9,3 -9,9l0,95.4c0,6 3,9 9,9l43.2,0c6,0 9,-3 9,-9l0,-95.4Zm-72,161.7c-27.4,0 -41.1,-13.3 -41.1,-39.9l0,-146.4c0,-27.8 13.7,-41.7 41.1,-41.7l82.5,0c27.4,-0 41.1,13.9 41.1,41.7l0,146.4c0,26.6 -13.7,39.9 -41.1,39.9l-82.5,0Z" style="fill:#f29441;fill-rule:nonzero;"/><path d="M2425.803,284.25c-28,0 -42,-13.3 -42,-39.9l0,-188.1l51.9,0l0,161.7c0,6 3,9 9,9l47.1,0c6,0 9,-3 9,-9l0,-161.7l51.6,0l0,188.1c0,26.6 -14,39.9 -42,39.9l-84.6,0Z" style="fill:#f29441;fill-rule:nonzero;"/><path d="M2694.861,121.05c0,-6 -3,-9 -9,-9l-52.2,0l0,33.9l52.2,0c6,0 9,-3 9,-9l0,-15.9Zm1.5,163.2c-0.4,-1.4 -0.75,-3.05 -1.05,-4.95c-0.3,-1.9 -0.45,-4.25 -0.45,-7.05l0,-69c0,-6 -3,-9 -9,-9l-52.2,0l0,90l-51.9,0l0,-228l122.7,0c27.6,-0 41.4,14.2 41.4,42.6l0,36c0,20.6 -8.4,32.4 -25.2,35.4c9,2 15.55,5.7 19.65,11.1c4.1,5.4 6.15,12.6 6.15,21.6l0,67.5c0,4 0.15,6.9 0.45,8.7c0.3,1.8 0.65,3.5 1.05,5.1l-51.6,0Z" style="fill:#f29441;fill-rule:nonzero;"/></g></svg>