<?xml version="1.0" encoding="UTF-8" standalone="no"?><!DOCTYPE svg PUBLIC "-//W3C//DTD SVG 1.1//EN" "http://www.w3.org/Graphics/SVG/1.1/DTD/svg11.dtd"><svg width="100%" height="100%" viewBox="0 0 2759 644" version="1.1" xmlns="http://www.w3.org/2000/svg" xmlns:xlink="http://www.w3.org/1999/xlink" xml:space="preserve" xmlns:serif="http://www.serif.com/" style="fill-rule:evenodd;clip-rule:evenodd;stroke-linejoin:round;stroke-miterlimit:2;"><g id="Überschrift"><g id="lines"><rect x="0.794" y="303.088" width="2758.064" height="37.5" style="fill:#f29441;"/><path d="M2758.858,303.088l0,37.5l-2758.064,0l0,-37.5l2758.064,0Zm-1,1l-2756.064,0l0,35.5l2756.064,-0l0,-35.5Z" style="fill:#ff2400;"/><rect x="0" y="606.457" width="2758.064" height="37.5" style="fill:#f29441;"/><path d="M2758.064,606.457l0,37.5l-2758.064,0l0,-37.5l2758.064,0Zm-1,1l-2756.064,0l0,35.5l2756.064,-0l0,-35.5Z" style="fill:#ff2400;"/><rect x="0.794" y="0" width="2758.064" height="37.5" style="fill:#f29441;"/><path d="M2758.858,-0l0,37.5l-2758.064,0l0,-37.5l2758.064,0Zm-1,1l-2756.064,0l-0,35.5l2756.064,-0l0,-35.5Z" style="fill:#ff2400;"/></g><g transform="matrix(1,0,0,0.641026,0,128.993005)"><text x="8.851px" y="715.018px" style="font-family:'KimberleyBl-Regular', 'Kimberley', sans-serif;font-weight:900;font-size:468px;fill:#f29441;">2<tspan x="326.623px 604.567px 749.647px 1067.419px 1354.771px 1499.851px 1817.623px 2135.395px 2453.167px " y="715.018px 715.018px 715.018px 715.018px 715.018px 715.018px 715.018px 715.018px 715.018px ">7.03.2026</tspan></text></g><g transform="matrix(300,0,0,300,2758.461161,284.25)"></g><text x="0.596px" y="284.25px" style="font-family:'KimberleyBl-Regular', 'Kimberley', sans-serif;font-weight:900;font-size:300px;fill:#f29441;">E<tspan x="168.253px 361.411px 551.569px 720.726px 802.284px 996.942px 1200.9px 1368.557px 1450.115px 1638.473px 1806.13px 2010.088px 2179.246px 2371.203px 2568.561px " y="284.25px 284.25px 284.25px 284.25px 284.25px 284.25px 284.25px 284.25px 284.25px 284.25px 284.25px 284.25px 284.25px 284.25px 284.25px ">RSTIKNEIPENTOUR</tspan></text></g></svg>