<?xml version="1.0" encoding="UTF-8" standalone="no"?><!DOCTYPE svg PUBLIC "-//W3C//DTD SVG 1.1//EN" "http://www.w3.org/Graphics/SVG/1.1/DTD/svg11.dtd"><svg width="100%" height="100%" viewBox="0 0 842 1191" version="1.1" xmlns="http://www.w3.org/2000/svg" xmlns:xlink="http://www.w3.org/1999/xlink" xml:space="preserve" xmlns:serif="http://www.serif.com/" style="fill-rule:evenodd;clip-rule:evenodd;stroke-linejoin:round;stroke-miterlimit:2;"><g id="Vordergrund-gruppe"></g><g id="Text"><g id="Überschrift"><g id="lines"><rect x="90.072" y="162.623" width="661.935" height="9" style="fill:#f29441;"/><path d="M752.008,162.623l0,9l-661.935,0l0,-9l661.935,0Zm-0.24,0.24l-661.455,0l0,8.52l661.455,-0l0,-8.52Z" style="fill:#ff2400;"/><rect x="89.882" y="235.432" width="661.935" height="9" style="fill:#f29441;"/><path d="M751.817,235.432l0,9l-661.935,0l0,-9l661.935,0Zm-0.24,0.24l-661.455,0l0,8.52l661.455,-0l0,-8.52Z" style="fill:#ff2400;"/><rect x="90.072" y="89.882" width="661.935" height="9" style="fill:#f29441;"/><path d="M752.008,89.882l0,9l-661.935,0l-0,-9l661.935,0Zm-0.24,0.24l-661.455,0l-0,8.52l661.455,-0l0,-8.52Z" style="fill:#ff2400;"/></g><g transform="matrix(1,0,0,0.641026,0,63.223617)"><text x="92.006px" y="261.486px" style="font-family:'KimberleyBl-Regular', 'Kimberley', sans-serif;font-weight:900;font-size:112.32px;fill:#f29441;">2<tspan x="168.271px 234.978px 269.797px 346.063px 415.027px 449.846px 526.111px 602.377px 678.642px " y="261.486px 261.486px 261.486px 261.486px 261.486px 261.486px 261.486px 261.486px 261.486px ">7.03.2026</tspan></text></g><g transform="matrix(72,0,0,72,751.912574,158.101896)"></g><text x="90.025px" y="158.102px" style="font-family:'KimberleyBl-Regular', 'Kimberley', sans-serif;font-weight:900;font-size:72px;fill:#f29441;">E<tspan x="130.263px 176.621px 222.258px 262.856px 282.43px 329.148px 378.098px 418.336px 437.909px 483.115px 523.353px 572.303px 612.901px 658.971px 706.337px " y="158.102px 158.102px 158.102px 158.102px 158.102px 158.102px 158.102px 158.102px 158.102px 158.102px 158.102px 158.102px 158.102px 158.102px 158.102px ">RSTIKNEIPENTOUR</tspan></text></g></g></svg>